<?xml version="1.0" encoding="UTF-8"?> <svg xmlns="http://www.w3.org/2000/svg" id="a" viewBox="0 0 195 50"><polygon points="8.38 36.46 13.9 36.46 13.9 17.3 22.36 17.3 22.36 13.54 0 13.54 0 17.3 8.38 17.3 8.38 36.46" style="fill:#eb7e23; fill-rule:evenodd;"></polygon><path d="M175.21,36.46h19.79v-3.76h-14.28v-6.08h13.48v-3.58h-13.48v-5.74h14.2v-3.76h-19.72v22.92Zm-11.03,0l9.3-22.92h-5.7l-7.69,19.28h-.08l-7.7-19.28h-5.63l9.23,22.92h8.27Zm-34.07-22.92v22.92h19.03v-3.76h-13.47V13.54h-5.55Zm-16.23-.18c-1.57,0-2.99,.03-4.21,.12-1.23,.09-2.41,.31-3.56,.64-1.19,.34-2.07,.86-2.68,1.56-.65,.76-1.11,1.68-1.3,2.72-.23,1.04-.35,2.23-.35,3.54v6.27c0,3.15,.73,5.29,2.18,6.45,.96,.82,2.18,1.34,3.68,1.62,1.49,.25,3.33,.37,5.51,.37,1.8,0,3.33-.03,4.6-.12,1.26-.09,2.53-.31,3.75-.65,1.19-.34,2.14-.89,2.79-1.62,.58-.7,1.03-1.41,1.38-2.17,.34-.76,.5-1.83,.5-3.21v-7.4c0-1.74-.23-3.09-.69-4-.42-.89-.8-1.47-1.11-1.74-.58-.7-1.42-1.22-2.6-1.56-1.19-.37-2.41-.58-3.71-.67-1.26-.09-2.68-.15-4.17-.15m.08,3.76c.96,0,1.88,.03,2.72,.06,1.34,.15,2.34,.49,2.99,1.01,.65,.64,.96,1.68,.96,3.12v6.91c0,.73-.08,1.41-.27,2.05-.19,.64-.42,1.1-.69,1.44-.46,.46-1.11,.76-1.99,.95-.88,.18-2.15,.28-3.83,.31-1.72-.03-3.02-.12-3.87-.28-.84-.12-1.49-.46-1.91-.98-.53-.7-.8-2.02-.8-3.88v-5.44c0-.28-.04-.52-.08-.7,.11-1.38,.34-2.41,.73-3.06,.35-.58,1-.98,1.95-1.19,.96-.21,2.3-.31,4.1-.31m-27.3-3.76c-4.21,0-7.08,.49-8.58,1.44-1.45,1.01-2.18,2.81-2.18,5.38,.11,2.47,.92,4.13,2.41,5.01,.54,.34,1.22,.58,2.03,.79,.8,.21,1.61,.34,2.41,.43,.8,.09,1.68,.15,2.57,.18,.92,.03,1.88,.06,2.91,.09,.57,.03,1.11,.03,1.61,.06,.46,.03,.84,.06,1.15,.09,.31,.03,.61,.09,.92,.18,.31,.09,.58,.21,.76,.37,.54,.46,.8,1.19,.8,2.26,0,1.5-.42,2.48-1.26,2.87-.5,.21-1.07,.37-1.76,.43-.73,.09-1.76,.15-3.18,.18-.27-.03-.65-.06-1.19-.06-1.11-.03-1.99-.09-2.6-.18-.61-.09-1.11-.27-1.45-.55-.35-.21-.54-.52-.65-.92-.11-.34-.19-.89-.23-1.59,.04-.16,.08-.37,.08-.64h-5.47c0,1.04,.04,1.87,.11,2.51,.08,.64,.27,1.29,.57,1.9,.31,.61,.8,1.16,1.49,1.62,.96,.64,2.07,1.04,3.41,1.19,1.34,.16,2.91,.25,4.75,.25h2.06c4.14,0,6.89-.4,8.23-1.2,.88-.52,1.53-1.25,1.99-2.23,.42-1.01,.65-2.14,.65-3.39-.04-.8-.04-1.38-.08-1.71-.04-.34-.12-.76-.23-1.22-.11-.46-.34-.92-.61-1.34-.27-.43-.61-.8-1.11-1.1-.8-.46-1.91-.8-3.41-.98-1.49-.15-3.37-.31-5.63-.43-.65-.03-1.38-.09-2.14-.12-.73-.03-1.38-.09-1.95-.18-.53-.09-1-.21-1.38-.37-.46-.18-.73-.46-.84-.79-.11-.34-.23-.89-.27-1.65,0-.67,.08-1.16,.23-1.5,.15-.34,.38-.61,.73-.82,.65-.4,2.07-.61,4.25-.61h2.26c1.88,0,3.02,.22,3.45,.61,.38,.34,.57,.92,.57,1.77v.92h5.55c0-1.35-.15-2.47-.42-3.36-.27-.89-.88-1.62-1.84-2.26-.92-.61-2.26-1.01-4.02-1.19-1.11-.09-2.91-.12-5.47-.12m-25.8,0c-4.21,0-7.08,.49-8.58,1.44-1.45,1.01-2.18,2.81-2.18,5.38,.11,2.47,.92,4.13,2.41,5.01,.54,.34,1.22,.58,2.03,.79,.8,.21,1.61,.34,2.41,.43,.8,.09,1.68,.15,2.57,.18,.92,.03,1.87,.06,2.91,.09,.57,.03,1.11,.03,1.61,.06,.46,.03,.84,.06,1.15,.09,.31,.03,.61,.09,.92,.18,.31,.09,.57,.21,.77,.37,.54,.46,.8,1.19,.8,2.26,0,1.5-.42,2.48-1.26,2.87-.5,.21-1.07,.37-1.76,.43-.73,.09-1.76,.15-3.18,.18-.27-.03-.65-.06-1.19-.06-1.11-.03-1.99-.09-2.6-.18-.61-.09-1.11-.27-1.45-.55-.34-.21-.54-.52-.65-.92-.11-.34-.19-.89-.23-1.59,.04-.16,.08-.37,.08-.64h-5.47c0,1.04,.04,1.87,.11,2.51,.08,.64,.27,1.29,.57,1.9,.31,.61,.8,1.16,1.49,1.62,.96,.64,2.07,1.04,3.41,1.19,1.34,.16,2.91,.25,4.75,.25h2.07c4.14,0,6.89-.4,8.23-1.2,.88-.52,1.53-1.25,1.99-2.23,.42-1.01,.65-2.14,.65-3.39-.04-.8-.04-1.38-.08-1.71-.04-.34-.11-.76-.23-1.22-.11-.46-.34-.92-.61-1.34-.27-.43-.61-.8-1.11-1.1-.8-.46-1.91-.8-3.41-.98-1.49-.15-3.37-.31-5.63-.43-.65-.03-1.38-.09-2.14-.12-.73-.03-1.38-.09-1.95-.18-.54-.09-.99-.21-1.38-.37-.46-.18-.73-.46-.84-.79-.11-.34-.23-.89-.27-1.65,0-.67,.08-1.16,.23-1.5,.15-.34,.38-.61,.73-.82,.65-.4,2.07-.61,4.25-.61h2.26c1.88,0,3.02,.22,3.45,.61,.38,.34,.57,.92,.57,1.77v.92h5.55c0-1.35-.15-2.47-.42-3.36-.27-.89-.88-1.62-1.84-2.26-.92-.61-2.26-1.01-4.02-1.19-1.11-.09-2.91-.12-5.47-.12" style="fill:#f58532; fill-rule:evenodd;"></path><path d="M25.87,22.77h20.04v4.43H25.87v-4.43Zm0,9.23h20.04v4.43H25.87v-4.43Zm0-18.46h20.04v4.43H25.87v-4.43Z" style="fill:#2aace2; fill-rule:evenodd;"></path></svg> 